<?xml version="1.0" encoding="utf-8"?>
<!-- Generator: Adobe Illustrator 21.0.0, SVG Export Plug-In . SVG Version: 6.00 Build 0)  -->
<svg version="1.1" id="Layer_1" xmlns="http://www.w3.org/2000/svg" xmlns:xlink="http://www.w3.org/1999/xlink" x="0px" y="0px"
	 viewBox="0 0 205 205.3" style="enable-background:new 0 0 205 205.3;" xml:space="preserve">
<style type="text/css">
	
		.st0{opacity:0.15;fill:none;stroke:#FFFFFF;stroke-linecap:round;stroke-linejoin:round;stroke-miterlimit:10;stroke-opacity:0.5;enable-background:new    ;}
	
		.st1{opacity:0.5;fill:none;stroke:#808080;stroke-linecap:round;stroke-linejoin:round;stroke-miterlimit:10;stroke-opacity:0.5;enable-background:new    ;}
</style>
<path class="st0" d="M47.1,205.3c0-2.3,1.9-4.2,4.2-4.2s4.2,1.9,4.2,4.2"/>
<line class="st0" x1="12.7" y1="141.4" x2="48.4" y2="105.7"/>
<line class="st0" x1="48.4" y1="202.3" x2="12.7" y2="166.7"/>
<polyline class="st0" points="54.3,105.7 102.6,154 54.3,202.3 "/>
<line class="st0" x1="0.1" y1="205.3" x2="25.4" y2="180"/>
<line class="st0" x1="0.1" y1="154" x2="51.4" y2="154"/>
<line class="st0" x1="64.3" y1="141.3" x2="51.5" y2="154"/>
<line class="st0" x1="64.3" y1="166.8" x2="51.4" y2="154"/>
<line class="st0" x1="25.7" y1="128.3" x2="0.2" y2="102.8"/>
<line class="st0" x1="55.5" y1="205.3" x2="102.8" y2="205.3"/>
<line class="st0" x1="55.5" y1="102.9" x2="102.7" y2="102.9"/>
<polyline class="st0" points="54.2,3 102.5,51.2 54.2,99.5 "/>
<line class="st0" x1="12.8" y1="38.5" x2="48.3" y2="3"/>
<line class="st0" x1="48.3" y1="99.5" x2="12.8" y2="64.1"/>
<path class="st0" d="M51.2,106.7c-2.3,0-4.2-1.9-4.2-4.2c0-2.3,1.9-4.2,4.2-4.2s4.2,1.9,4.2,4.2C55.4,104.8,53.6,106.7,51.2,106.7z"
	/>
<path class="st0" d="M55.4,0c0,2.3-1.9,4.2-4.2,4.2S47,2.3,47,0"/>
<line class="st0" x1="25.6" y1="76.9" x2="0.1" y2="102.5"/>
<line class="st0" x1="25.6" y1="25.6" x2="0.1" y2="0"/>
<line class="st0" x1="0" y1="51.2" x2="51.3" y2="51.2"/>
<line class="st0" x1="64.6" y1="38" x2="51.4" y2="51.2"/>
<line class="st0" x1="64.1" y1="64" x2="51.3" y2="51.2"/>
<path class="st0" d="M149.8,205.3c0-2.3,1.9-4.2,4.2-4.2s4.2,1.9,4.2,4.2"/>
<line class="st0" x1="115.4" y1="141.4" x2="151" y2="105.7"/>
<line class="st0" x1="151" y1="202.3" x2="115.4" y2="166.7"/>
<polyline class="st0" points="156.9,105.7 205.2,154 157,202.3 "/>
<line class="st0" x1="102.8" y1="205.3" x2="128" y2="180"/>
<line class="st0" x1="102.8" y1="154" x2="154.1" y2="154"/>
<line class="st0" x1="166.9" y1="141.3" x2="154.1" y2="154"/>
<line class="st0" x1="166.9" y1="166.8" x2="154.1" y2="154"/>
<line class="st0" x1="128.4" y1="128.3" x2="102.8" y2="102.8"/>
<line class="st0" x1="158.2" y1="205.3" x2="205.3" y2="205.3"/>
<line class="st0" x1="158.1" y1="102.9" x2="205.2" y2="102.9"/>
<polyline class="st0" points="156.8,3 205,51.2 156.8,99.5 "/>
<line class="st0" x1="115.3" y1="38.5" x2="150.8" y2="3"/>
<line class="st0" x1="150.8" y1="99.5" x2="115.4" y2="64.1"/>
<path class="st0" d="M153.8,106.7c-2.3,0-4.2-1.9-4.2-4.2c0-2.3,1.9-4.2,4.2-4.2s4.2,1.9,4.2,4.2C158,104.8,156.1,106.7,153.8,106.7
	z"/>
<path class="st0" d="M158,0c0,2.3-1.9,4.2-4.2,4.2s-4.2-1.9-4.2-4.2"/>
<line class="st0" x1="128.2" y1="76.9" x2="102.6" y2="102.5"/>
<path class="st0" d="M102.6,102.5"/>
<path class="st0" d="M128.3,99.5"/>
<line class="st0" x1="128.2" y1="25.6" x2="102.6" y2="0"/>
<line class="st0" x1="102.6" y1="51.2" x2="153.9" y2="51.2"/>
<line class="st0" x1="167.1" y1="38" x2="153.9" y2="51.2"/>
<line class="st0" x1="166.7" y1="64" x2="153.9" y2="51.2"/>
<line class="st1" x1="670.5" y1="615" x2="717.7" y2="615"/>
<line class="st1" x1="773" y1="615" x2="820.2" y2="615"/>
<line class="st1" x1="875.5" y1="615" x2="922.7" y2="615"/>
<line class="st1" x1="978" y1="615" x2="1025.2" y2="615"/>
</svg>
